<svg xmlns="http://www.w3.org/2000/svg" viewBox="0 0 40 40" width="40" height="40">
  <!-- Outer circle -->
  <circle cx="20" cy="20" r="18" fill="none" stroke="#2d4a3e" stroke-width="1.5"/>

  <!-- Inner thin ring -->
  <circle cx="20" cy="20" r="15.5" fill="none" stroke="#c4a882" stroke-width="0.5"/>

  <!-- Main leaf -->
  <path d="M20,7 Q31,17 20,33 Q9,17 20,7 Z" fill="#2d4a3e" opacity="0.12"/>
  <path d="M20,7 Q31,17 20,33 Q9,17 20,7 Z" fill="none" stroke="#2d4a3e" stroke-width="1.2"/>

  <!-- Center vein -->
  <line x1="20" y1="11" x2="20" y2="29" stroke="#7a9e8e" stroke-width="0.8"/>

  <!-- Side veins -->
  <path d="M20,15 Q16,17 14,15.5" fill="none" stroke="#7a9e8e" stroke-width="0.6"/>
  <path d="M20,15 Q24,17 26,15.5" fill="none" stroke="#7a9e8e" stroke-width="0.6"/>
  <path d="M20,19 Q15,21 12.5,19.5" fill="none" stroke="#7a9e8e" stroke-width="0.6"/>
  <path d="M20,19 Q25,21 27.5,19.5" fill="none" stroke="#7a9e8e" stroke-width="0.6"/>
  <path d="M20,23 Q16,25 14.5,24" fill="none" stroke="#7a9e8e" stroke-width="0.6"/>
  <path d="M20,23 Q24,25 25.5,24" fill="none" stroke="#7a9e8e" stroke-width="0.6"/>

  <!-- Small dot at top -->
  <circle cx="20" cy="5.5" r="1" fill="#c4a882"/>
</svg>